<?xml version="1.0" encoding="UTF-8"?>
<svg id="OBJECTS" xmlns="http://www.w3.org/2000/svg" version="1.1" viewBox="0 0 308.1 252.7">
  <!-- Generator: Adobe Illustrator 29.1.0, SVG Export Plug-In . SVG Version: 2.1.0 Build 142)  -->
  <defs>
    <style>
      .st0 {
        fill: #d8a023;
      }

      .st1 {
        fill: #fffaff;
      }
    </style>
  </defs>
  <g>
    <path class="st1" d="M73,51.7v-.6l2.3-.6v-24.9l-2.3-.6v-.6h10.9c2.2,0,4.1.2,5.6.6,1.5.4,2.8.9,3.7,1.6.9.7,1.6,1.6,2,2.6.4,1,.6,2.2.6,3.5s-.2,2.5-.6,3.5c-.4,1-1.1,1.9-2,2.6-.9.7-2.2,1.3-3.7,1.7-1.5.4-3.4.6-5.6.6h-2.1v9.3l2.3.6v.6h-11.1ZM81.8,40.3h2.1c.8,0,1.5-.1,2.2-.4.7-.3,1.2-.8,1.7-1.4.5-.6.9-1.4,1.1-2.3.3-.9.4-2,.4-3.3,0-2.5-.5-4.4-1.6-5.6-1-1.2-2.3-1.8-3.9-1.8h-2.1v14.8Z"/>
    <path class="st1" d="M100,51.7v-.6l2.3-.6v-24.8l-2.3-.6v-.6h11.1v.6l-2.3.6v24.8l2.3.6v.6h-11.1Z"/>
    <path class="st1" d="M115.5,38.2c0-2.3.3-4.3.9-6.1s1.4-3.2,2.5-4.4c1.1-1.2,2.4-2.1,3.9-2.7s3.2-.9,5-.9,1.7.1,2.5.4c.8.3,1.4.6,2,.9.6.4,1.2.8,1.7,1.3.2-.3.4-.6.7-.9.2-.3.5-.5.7-.7.3-.2.5-.4.8-.5h1v7.4h-1.6c-.4-1.2-.9-2.4-1.5-3.4-.5-.9-1.3-1.6-2.2-2.4s-2-1.1-3.3-1.1-1.5.2-2.3.6c-.8.4-1.4,1.1-2,2.2-.6,1-1,2.4-1.4,4.1-.3,1.7-.5,3.8-.5,6.3s.2,4.6.5,6.3c.4,1.7.9,3,1.5,4.1.6,1,1.4,1.8,2.3,2.2.9.4,1.8.6,2.8.6s1.8-.2,2.7-.6c.9-.4,1.6-1,2.3-1.6.7-.7,1.2-1.5,1.6-2.4.4-.9.6-1.8.6-2.8h1c0,1.1-.2,2.2-.7,3.2-.5,1-1.1,1.9-1.9,2.7-.8.8-1.7,1.4-2.8,1.8-1.1.5-2.3.7-3.5.7-2,0-3.9-.3-5.5-.9-1.6-.6-3-1.5-4.2-2.7-1.1-1.2-2-2.7-2.6-4.4s-.9-3.8-.9-6.1Z"/>
    <path class="st1" d="M139,51.7v-.6l3.1-1.2,10.7-25.8h1.2l11,26.4,2,.6v.6h-4.7c-1.5,0-2.6-.3-3.4-1-.8-.7-1.4-1.4-1.8-2.3l-2-4.7h-9.3l-2.6,6.2,2.9,1.2v.6h-7.2ZM146.2,42.8h8.5l-4.3-10.2-4.2,10.2Z"/>
    <path class="st1" d="M168.3,51.9v-7.4h1.6c.4,1.3.9,2.4,1.6,3.4.3.4.7.9,1.1,1.3.4.4.8.8,1.3,1.1.5.3,1.1.6,1.7.8.6.2,1.3.3,2,.3,1.5,0,2.7-.4,3.5-1.3s1.3-2.1,1.3-3.5-.3-1.9-1-2.6-1.5-1.4-2.5-2.1-2.1-1.3-3.3-1.9c-1.2-.7-2.3-1.4-3.3-2.2s-1.9-1.8-2.5-2.9c-.7-1.1-1-2.4-1-4s.2-1.8.6-2.6c.4-.8,1-1.5,1.8-2.2.8-.6,1.8-1.1,3-1.5,1.2-.4,2.6-.5,4.2-.5s1.8.1,2.5.4c.8.3,1.4.6,2,.9.6.4,1.2.8,1.7,1.3.2-.3.4-.6.7-.9.2-.3.5-.5.7-.7.3-.2.5-.4.8-.5h1v7.4h-1.5c-.4-1.2-.9-2.4-1.5-3.4-.5-.9-1.3-1.6-2.2-2.4s-2-1.1-3.3-1.1-1,.1-1.4.3-.8.5-1.2.9c-.3.4-.6.8-.8,1.4-.2.5-.3,1.1-.3,1.7,0,1.1.3,2.1,1,2.9.7.8,1.5,1.5,2.5,2.2,1,.7,2.1,1.3,3.3,2s2.3,1.4,3.3,2.2,1.9,1.7,2.5,2.7,1,2.2,1,3.6-.2,2-.7,2.9c-.4.9-1.1,1.7-2,2.4-.9.7-2,1.2-3.3,1.6s-2.9.6-4.7.6-2.1-.1-3-.4c-.9-.3-1.6-.5-2.2-.9-.7-.4-1.3-.8-1.8-1.3-.2.4-.4.7-.7.9-.3.3-.5.5-.7.7-.3.2-.5.4-.8.5h-1Z"/>
    <path class="st1" d="M192.2,51.9v-7.4h1.6c.4,1.3.9,2.4,1.6,3.4.3.4.7.9,1.1,1.3.4.4.8.8,1.3,1.1.5.3,1.1.6,1.7.8.6.2,1.3.3,2,.3,1.5,0,2.7-.4,3.5-1.3.9-.9,1.3-2.1,1.3-3.5s-.3-1.9-1-2.6c-.7-.7-1.5-1.4-2.5-2.1s-2.1-1.3-3.3-1.9c-1.2-.7-2.3-1.4-3.3-2.2-1-.8-1.9-1.8-2.5-2.9-.7-1.1-1-2.4-1-4s.2-1.8.6-2.6c.4-.8,1-1.5,1.8-2.2.8-.6,1.8-1.1,3-1.5,1.2-.4,2.6-.5,4.2-.5s1.8.1,2.5.4c.8.3,1.4.6,2,.9.6.4,1.2.8,1.7,1.3.2-.3.4-.6.7-.9.2-.3.5-.5.7-.7.3-.2.5-.4.8-.5h1v7.4h-1.5c-.4-1.2-.9-2.4-1.5-3.4-.5-.9-1.3-1.6-2.2-2.4-.9-.7-2-1.1-3.3-1.1s-1,.1-1.4.3-.8.5-1.2.9c-.3.4-.6.8-.8,1.4-.2.5-.3,1.1-.3,1.7,0,1.1.3,2.1,1,2.9.7.8,1.5,1.5,2.5,2.2s2.1,1.3,3.3,2,2.3,1.4,3.3,2.2c1,.8,1.9,1.7,2.5,2.7.7,1,1,2.2,1,3.6s-.2,2-.7,2.9c-.4.9-1.1,1.7-2,2.4-.9.7-2,1.2-3.3,1.6s-2.9.6-4.7.6-2.1-.1-3-.4c-.9-.3-1.6-.5-2.2-.9-.7-.4-1.3-.8-1.8-1.3-.2.4-.4.7-.7.9s-.5.5-.7.7c-.3.2-.5.4-.8.5h-1Z"/>
    <path class="st1" d="M216.4,38.2c0-2.3.3-4.3.9-6.1s1.5-3.2,2.6-4.4c1.1-1.2,2.4-2.1,4-2.7s3.3-.9,5.2-.9,3.6.3,5.2.9c1.5.6,2.9,1.5,4,2.7,1.1,1.2,2,2.7,2.6,4.4s.9,3.8.9,6.1-.3,4.3-.9,6.1-1.5,3.2-2.6,4.4c-1.1,1.2-2.4,2.1-4,2.7s-3.3.9-5.2.9-3.6-.3-5.2-.9-2.9-1.5-4-2.7c-1.1-1.2-2-2.7-2.6-4.4s-.9-3.8-.9-6.1ZM223.2,38.2c0,2.6.2,4.7.5,6.4.3,1.7.8,3.1,1.4,4.1.6,1,1.2,1.8,1.9,2.2.7.4,1.4.6,2.1.6s1.4-.2,2.1-.6c.7-.4,1.3-1.2,1.9-2.2.6-1,1-2.4,1.4-4.1.3-1.7.5-3.9.5-6.4s-.2-4.7-.5-6.4c-.3-1.7-.8-3.1-1.4-4.1-.6-1-1.2-1.8-1.9-2.2-.7-.4-1.4-.6-2.1-.6s-1.4.2-2.1.6c-.7.4-1.3,1.2-1.9,2.2-.6,1-1,2.4-1.4,4.1-.3,1.7-.5,3.9-.5,6.4Z"/>
  </g>
  <g>
    <path class="st0" d="M274.3,36.3c-4.6.1-8.2,4.2-8.2,8.8v65.5c0,7.8-6.3,14.1-14.1,14.1h-53.2c-13.8,0-24.9,11.2-24.9,24.9v74.7c0,4.6,3.6,8.6,8.2,8.8s8.7-3.7,8.7-8.4v-75c0-4.5,3.6-8.1,8.1-8.1h56.6c5.9,0,10.7,4.8,10.7,10.7v72.1c0,4.6,3.6,8.6,8.2,8.8,4.8.1,8.7-3.7,8.7-8.4V44.8c0-4.7-3.9-8.6-8.7-8.4Z"/>
    <path class="st0" d="M115.2,124.7h-53.2c-7.8,0-14.1-6.3-14.1-14.1V45.1c0-4.6-3.6-8.6-8.2-8.8s-8.7,3.7-8.7,8.4v179.5c0,4.6,3.6,8.6,8.2,8.8s8.7-3.7,8.7-8.4v-72.5c0-5.9,4.8-10.7,10.7-10.7h56.6c4.5,0,8.1,3.6,8.1,8.1v74.7c0,4.6,3.6,8.6,8.2,8.8s8.7-3.7,8.7-8.4v-75c0-13.8-11.2-24.9-24.9-24.9Z"/>
    <path class="st0" d="M240.6,76.7H73.8c-4.6,0-8.6,3.6-8.8,8.2-.1,4.8,3.7,8.7,8.4,8.7h63.1c6.7,0,12.1,5.4,12.1,12.1v118.7c0,4.6,3.6,8.6,8.2,8.8s8.7-3.7,8.7-8.4v-119c0-6.7,5.4-12.1,12.1-12.1h62.7c4.6,0,8.6-3.6,8.8-8.2s-3.7-8.7-8.4-8.7Z"/>
  </g>
</svg>