<?xml version="1.0" encoding="UTF-8"?>
<svg id="OBJECTS" xmlns="http://www.w3.org/2000/svg" version="1.1" viewBox="0 0 306.7 51.6">
  <!-- Generator: Adobe Illustrator 29.1.0, SVG Export Plug-In . SVG Version: 2.1.0 Build 142)  -->
  <defs>
    <style>
      .st0 {
        fill: #fffaff;
      }
    </style>
  </defs>
  <path class="st0" d="M0,50.1v-1.1l4.2-1.1V2.7L0,1.6V.5h19.8c4,0,7.4.4,10.2,1.1s5.1,1.6,6.7,2.9c1.6,1.3,2.9,2.9,3.6,4.7s1.1,4,1.1,6.4-.4,4.5-1.1,6.4-2,3.5-3.6,4.7c-1.6,1.3-4,2.4-6.7,3.1s-6.2,1.1-10.2,1.1h-3.8v16.9l4.2,1.1v1.1H0v.2ZM16,29.4h3.8c1.5,0,2.7-.2,4-.7,1.3-.5,2.2-1.5,3.1-2.5.9-1.1,1.6-2.5,2-4.2.5-1.6.7-3.6.7-6,0-4.5-.9-8-2.9-10.2-1.8-2.2-4.2-3.3-7.1-3.3h-3.8v26.9h.2Z"/>
  <path class="st0" d="M49.1,50.1v-1.1l4.2-1.1V2.9l-4.2-1.1V.7h20.2v1.1l-4.2,1.1v45.1l4.2,1.1v1.1h-20.2Z"/>
  <path class="st0" d="M77.2,25.6c0-4.2.5-7.8,1.6-11.1s2.5-5.8,4.5-8c2-2.2,4.4-3.8,7.1-4.9S96.3,0,99.6,0s3.1.2,4.5.7,2.5,1.1,3.6,1.6c1.1.7,2.2,1.5,3.1,2.4.4-.5.7-1.1,1.3-1.6.4-.5.9-.9,1.3-1.3.5-.4.9-.7,1.5-.9h1.8v13.4h-2.9c-.7-2.2-1.6-4.4-2.7-6.2-.9-1.6-2.4-2.9-4-4.4s-3.6-2-6-2-2.7.4-4.2,1.1-2.5,2-3.6,4c-1.1,1.8-1.8,4.4-2.5,7.4-.5,3.1-.9,6.9-.9,11.4s.4,8.4.9,11.4c.7,3.1,1.6,5.5,2.7,7.4,1.1,1.8,2.5,3.3,4.2,4s3.3,1.1,5.1,1.1,3.3-.4,4.9-1.1c1.6-.7,2.9-1.8,4.2-2.9,1.3-1.3,2.2-2.7,2.9-4.4.7-1.6,1.1-3.3,1.1-5.1h1.8c0,2-.4,4-1.3,5.8s-2,3.5-3.5,4.9c-1.5,1.5-3.1,2.5-5.1,3.3-2,.9-4.2,1.3-6.4,1.3-3.6,0-7.1-.5-10-1.6-2.9-1.1-5.5-2.7-7.6-4.9-2-2.2-3.6-4.9-4.7-8s-1.6-6.9-1.6-11.1l-.2-.4Z"/>
  <path class="st0" d="M119.9,50.1v-1.1l5.6-2.2L145,0h2.2l20,48,3.6,1.1v1.1h-8.5c-2.7,0-4.7-.5-6.2-1.8-1.5-1.3-2.5-2.5-3.3-4.2l-3.6-8.5h-16.9l-4.7,11.3,5.3,2.2v1.1h-13.1.2ZM133,34h15.4l-7.8-18.5-7.6,18.5Z"/>
  <path class="st0" d="M173.2,50.5v-13.4h2.9c.7,2.4,1.6,4.4,2.9,6.2.5.7,1.3,1.6,2,2.4.7.7,1.5,1.5,2.4,2s2,1.1,3.1,1.5c1.1.4,2.4.5,3.6.5,2.7,0,4.9-.7,6.4-2.4s2.4-3.8,2.4-6.4-.5-3.5-1.8-4.7-2.7-2.5-4.5-3.8-3.8-2.4-6-3.5c-2.2-1.3-4.2-2.5-6-4s-3.5-3.3-4.5-5.3c-1.3-2-1.8-4.4-1.8-7.3s.4-3.3,1.1-4.7c.7-1.5,1.8-2.7,3.3-4,1.5-1.1,3.3-2,5.5-2.7s4.7-.9,7.6-.9,3.3.2,4.5.7c1.5.5,2.5,1.1,3.6,1.6,1.1.7,2.2,1.5,3.1,2.4.4-.5.7-1.1,1.3-1.6.4-.5.9-.9,1.3-1.3.5-.4.9-.7,1.5-.9h1.8v13.4h-2.7c-.7-2.2-1.6-4.4-2.7-6.2-.9-1.6-2.4-2.9-4-4.4s-3.6-2-6-2-1.8.2-2.5.5-1.5.9-2.2,1.6c-.5.7-1.1,1.5-1.5,2.5-.4.9-.5,2-.5,3.1,0,2,.5,3.8,1.8,5.3,1.3,1.5,2.7,2.7,4.5,4s3.8,2.4,6,3.6,4.2,2.5,6,4,3.5,3.1,4.5,4.9,1.8,4,1.8,6.5-.4,3.6-1.3,5.3c-.7,1.6-2,3.1-3.6,4.4s-3.6,2.2-6,2.9-5.3,1.1-8.5,1.1-3.8-.2-5.5-.7c-1.6-.5-2.9-.9-4-1.6-1.3-.7-2.4-1.5-3.3-2.4-.4.7-.7,1.3-1.3,1.6-.5.5-.9.9-1.3,1.3-.5.4-.9.7-1.5.9h-1.8v-.2Z"/>
  <path class="st0" d="M216.6,50.5v-13.4h2.9c.7,2.4,1.6,4.4,2.9,6.2.5.7,1.3,1.6,2,2.4.7.7,1.5,1.5,2.4,2s2,1.1,3.1,1.5c1.1.4,2.4.5,3.6.5,2.7,0,4.9-.7,6.4-2.4,1.6-1.6,2.4-3.8,2.4-6.4s-.5-3.5-1.8-4.7c-1.3-1.3-2.7-2.5-4.5-3.8s-3.8-2.4-6-3.5c-2.2-1.3-4.2-2.5-6-4s-3.5-3.3-4.5-5.3c-1.3-2-1.8-4.4-1.8-7.3s.4-3.3,1.1-4.7c.7-1.5,1.8-2.7,3.3-4,1.5-1.1,3.3-2,5.5-2.7s4.7-.9,7.6-.9,3.3.2,4.5.7c1.5.5,2.5,1.1,3.6,1.6,1.1.7,2.2,1.5,3.1,2.4.4-.5.7-1.1,1.3-1.6.4-.5.9-.9,1.3-1.3.5-.4.9-.7,1.5-.9h1.8v13.4h-2.7c-.7-2.2-1.6-4.4-2.7-6.2-.9-1.6-2.4-2.9-4-4.4-1.6-1.3-3.6-2-6-2s-1.8.2-2.5.5-1.5.9-2.2,1.6c-.5.7-1.1,1.5-1.5,2.5-.4.9-.5,2-.5,3.1,0,2,.5,3.8,1.8,5.3,1.3,1.5,2.7,2.7,4.5,4s3.8,2.4,6,3.6,4.2,2.5,6,4,3.5,3.1,4.5,4.9c1.3,1.8,1.8,4,1.8,6.5s-.4,3.6-1.3,5.3c-.7,1.6-2,3.1-3.6,4.4s-3.6,2.2-6,2.9-5.3,1.1-8.5,1.1-3.8-.2-5.5-.7c-1.6-.5-2.9-.9-4-1.6-1.3-.7-2.4-1.5-3.3-2.4-.4.7-.7,1.3-1.3,1.6s-.9.9-1.3,1.3c-.5.4-.9.7-1.5.9h-1.8v-.2Z"/>
  <path class="st0" d="M260.5,25.6c0-4.2.5-7.8,1.6-11.1s2.7-5.8,4.7-8c2-2.2,4.4-3.8,7.3-4.9S280.2,0,283.6,0s6.5.5,9.4,1.6c2.7,1.1,5.3,2.7,7.3,4.9s3.6,4.9,4.7,8c1.1,3.1,1.6,6.9,1.6,11.1s-.5,7.8-1.6,11.1-2.7,5.8-4.7,8-4.4,3.8-7.3,4.9-6,1.6-9.4,1.6-6.5-.5-9.4-1.6-5.3-2.7-7.3-4.9-3.6-4.9-4.7-8-1.6-6.9-1.6-11.1ZM272.9,25.6c0,4.7.4,8.5.9,11.6s1.5,5.6,2.5,7.4c1.1,1.8,2.2,3.3,3.5,4s2.5,1.1,3.8,1.1,2.5-.4,3.8-1.1c1.3-.7,2.4-2.2,3.5-4,1.1-1.8,1.8-4.4,2.5-7.4.5-3.1.9-7.1.9-11.6s-.4-8.5-.9-11.6c-.5-3.1-1.5-5.6-2.5-7.4-1.1-1.8-2.2-3.3-3.5-4-1.3-.7-2.5-1.1-3.8-1.1s-2.5.4-3.8,1.1c-1.3.7-2.4,2.2-3.5,4-1.1,1.8-1.8,4.4-2.5,7.4-.5,3.1-.9,7.1-.9,11.6Z"/>
</svg>