<?xml version="1.0" encoding="UTF-8"?><svg id="_Слой_1" xmlns="http://www.w3.org/2000/svg" viewBox="0 0 161.04 56.92"><defs><style>.cls-1{fill:#fff;fill-rule:evenodd;}</style></defs><path class="cls-1" d="M28.45,44.45c2.43.05,3.03-.04,5.37-.29,4.11-.43,8.27-1.02,12.4-1.55,9.47-1.2,19.02-2.6,28.53-3.83,6.72-.87,14.07-1.94,20.72-2.66,3.8-.42,8.38-1.13,12.27-1.56,1.5-.16,2.71-.33,4.22-.51,2.79-.33,5.41-.64,8.23-.99l37.23-4.6c.91-.12,3.62-.31,3.62-1.06,0-1.16-5.09-.66-6.28-.66l-29.36,1.92-17.67,1.49c-14.08,1.25-28.76,3.35-42.78,5.13l-10.49,1.53c-.73.12-1.34.25-1.97.38-6.09,1.23-14.96,2.7-20.58,4.36l-2.76.91c-1.97.82-2.28,1.94-.69,1.97h0Z"/><path class="cls-1" d="M7.49,6.85c0,.85-.05,1.8.4,2.55,1.68,2.78,5.76-1.73,6.4-2.27l.78-.71c.58-.5,1-.82,1.8-.95.5.69.4.53.4,1.59,0,1.74-1.23,4.67-1.77,6.4L2.07,49.96c-.32.84-2.87,6.91-1.83,6.95,1.24.06,2.26-2.4,2.73-3.21l12.07-21.88c.46-.88,1-1.66,1.43-2.51.47-.94.95-1.69,1.4-2.66,1.15-2.46,5.17-9.04,5.17-11.03,0-2.15-2.61-6.73-3.37-9.06-.74-2.26.7-2.03,2.7-1.94,3.98.18,4.98,1.01,6.15,4.39.77,2.22,1.36,5.78,1.36,8.61,0,2.21-9.55,26.97-11.78,35.31-.47,1.76,2.43-1.06,2.43-.69,0,1.36,14.72-27.37,17.93-33.14,2.06-3.7.08-9.05-2.92-11.98-1.11-1.09-1.62-1.48-2.87-2.37C28.29,1.64,21.89.27,15.94,0c-2.5-.11-6.16,2.09-7.42,4.08-.43.67-1.03,1.77-1.03,2.77h0Z"/><path class="cls-1" d="M153.56,16.32c-.54-.02-.98-.16-1.43-.47-1.51-1.06.17-3.32.83-4.07l1.1-1.13c.4-.36.78-.75,1.38-.87.55,2.15,1.61,3.97-.16,5.51-.26.22-1.37,1.05-1.71,1.03h0ZM142.7,18.96c0,1.53.64,2.08,2.41,2.16,2.82.13,7.44-1.25,9.52-1.98,2.43-.85,6.17-2.1,6.17-5.14,0-4.18-2.3-6.59-2.41-10.12-.04-1.27-.17-2.66-1.47-2.72-2.99-.14-7.36,4.9-9.01,7.04-1.66,2.16-5.2,7.3-5.2,10.76h0Z"/><path class="cls-1" d="M99.27,16.83c0-1.43,3.2-3,4.41-.03.72,1.77.79,5.57-.25,5.52-.93-.04-4.16-4.38-4.16-5.49h0ZM57.23,28.6c1.26-.16,6.17-4.02,7.2-4.68l.7-.45,5.39-13.67c.35-.85,1.03-3.41,2.26-3.48,1.03-.06-.71,6.26-.91,7.14l-1.2,5.29c1.18-3.61,3.61-7.02,6.25-9.3,1.16-1.01,4.68-2.72,6.57-1.32,1.56,1.15-.25,3.22-1.08,4.09l-.79.82c-.18.18-.28.23-.45.42-1.92,2.06-6.82,5.73-6.82,8.39s6.1,3.05,8.31,3.15c2.45.11,6.9-.55,7.96-2.49,1.05-1.91-.1-6.24,1.74-8.24,2.18-2.36,7.86-1.83,8.43-1.92,1.7-.28,1.85-1.35,2.76-2.34,2.03-2.21,5.92-2.52,5.92,1.13,0,5.92-.79,5.15-2.5,8.49-.5.98-.72,1.81-.72,2.94.79.02,1.24-.36,1.74-.64,2.2-1.36,4.89-1.92,7.34-2-2.47-2.11-.97-5.84,0-7.97.62-1.38,3.21-6.31,4.14-7.02.78-.59,1.23-.07,1.68.57.45.63.72,1.18,1.1,1.88.36.66.66,1.2.94,1.9.18.46.59,1.72.59,2.31,0,2.03-.84-.05-1.68-.29-1.3.8-1.39,5.36.69,7.57.57.6,3.67.15,6.33-.27-.89-2.34.33-5.33,1.18-7.21.7-1.54,3.58-7.04,4.61-7.82.87-.66,1.37-.08,1.87.63.5.7.8,1.31,1.22,2.09.4.73.74,1.34,1.05,2.12.2.51.65,1.91.65,2.58,0,2.26-.94-.06-1.88-.33-1.45.89-1.96,7.11.37,9.57,1.15,1.21,3.65,2.4,3.65,3.15,0,1.42-4.66-.36-6.38-.82-1.22-.33-2.38-.7-3.4-1.2-2.32,2.38-7.86,1.56-10.62.96-11.48,4.73-24.32,1.87-27.92,1.7-3.08-.14-6.64,3.92-15.55,3.51-2.77-.13-3.42-.18-5.37-1.32-1.38-.81-2.67-1.48-2.67-3.02,0-.51.03-1.02.1-1.53l-.94,4.16c-.87,4.96-2.69,4.6-4.37,2.17-.41.73-1.01,1.44-1.55,2l-.07.07-.1.05c-2.21,1.09-10.09,4.91-10.39-.21-.15-2.55,1.54-5.59,2.24-8.02.62-2.15,1.78-4.22,3.25-5.97.94-1.12,2.48-2.63,3.97-3.18,1.67-.61,2.61.33,2.4,1.86-.29,2.16-2.34,5.36-3.54,7.16-1.05,1.72-3.03,4.34-3.57,6.19-.03.11-.12.44-.11.63h0Z"/><path class="cls-1" d="M47.09,30.07c.36.05,1.51-.52,1.81-.68.59-.3,1.87-1.13,2.56-.67l.5.33-.32.45c-.95,1.31-2.4,2.53-4.03,3.14-1.39.52-3.1.6-4.21-.57-1.53-1.61-1.12-5.55-.8-7.42.38-2.18,1.4-5.82,3.25-7.28.68-.54,3.3-1.39,4.26-1.53.88-.13,2.02-.08,2.38.85.39,1.03-.67,2.59-1.23,3.39-2.03,2.86-3.9,6.04-4.2,9.55,0,.08-.02.34.03.45h0Z"/></svg>